<svg width="501" height="228" viewBox="0 0 501 228" fill="none" xmlns="http://www.w3.org/2000/svg">
<rect width="250" height="228" fill="#8CA87C"/>
<rect x="250" width="251" height="228" fill="#AB8742"/>
<path fill-rule="evenodd" clip-rule="evenodd" d="M266.542 228L270.086 219C273.631 209 281.902 190 287.81 171C292.536 152 296.081 133 288.991 114C281.902 95 271.268 85 266.542 66C262.997 47 270.455 28 274 19L288.991 0H250V10C250 19 250 38 250 57C250 76 250 95 250 114C250 133 250 152 250 171C250 190 250 209 250 219V228H266.542Z" fill="#536A44"/>
<path fill-rule="evenodd" clip-rule="evenodd" d="M233.458 0L229.914 9C226.369 19 218.098 38 212.19 57C207.464 76 203.919 95 211.009 114C218.098 133 228.732 143 233.458 162C237.003 181 229.045 199 225.5 208L211.009 228H250V218C250 209 250 190 250 171C250 152 250 133 250 114C250 95 250 76 250 57C250 38 250 19 250 9V0L233.458 0Z" fill="#536A44"/>
</svg>
